<?xml version="1.0" standalone="no"?>
<!DOCTYPE svg PUBLIC "-//W3C//DTD SVG 20010904//EN"
 "http://www.w3.org/TR/2001/REC-SVG-20010904/DTD/svg10.dtd">
<svg version="1.0" xmlns="http://www.w3.org/2000/svg"
 width="932.000000pt" height="932.000000pt" viewBox="0 0 932.000000 932.000000"
 preserveAspectRatio="xMidYMid meet">
<metadata>
Created by potrace 1.11, written by Peter Selinger 2001-2013
</metadata>
<g transform="translate(0.000000,932.000000) scale(0.100000,-0.100000)"
fill="#000000" stroke="none">
<path d="M4507 9314 c-2 -2 -36 -6 -76 -9 -41 -3 -85 -7 -100 -9 -14 -3 -46
-8 -71 -11 -25 -4 -54 -9 -65 -11 -10 -2 -37 -6 -58 -9 -22 -4 -49 -10 -62
-15 -13 -5 -25 -6 -28 -4 -3 3 -14 1 -24 -4 -10 -6 -31 -12 -48 -15 -16 -3
-47 -11 -69 -17 -21 -6 -46 -13 -55 -15 -9 -2 -45 -13 -81 -25 -36 -12 -72
-23 -80 -25 -8 -1 -41 -15 -74 -29 -32 -14 -62 -26 -67 -26 -5 0 -44 -17 -86
-37 -43 -20 -80 -37 -83 -38 -48 -11 -449 -251 -485 -291 -5 -6 -26 -22 -45
-34 -19 -13 -37 -27 -40 -31 -3 -3 -32 -28 -65 -54 -60 -48 -345 -329 -345
-340 0 -4 -6 -12 -12 -19 -7 -7 -24 -27 -38 -45 -14 -18 -33 -42 -44 -54 -10
-12 -32 -42 -49 -67 -17 -25 -35 -48 -41 -52 -7 -5 -7 -8 -1 -8 6 0 6 -3 0 -8
-25 -17 -140 -213 -204 -347 -40 -82 -109 -245 -116 -270 -1 -5 -4 -17 -7 -25
-10 -27 -50 -155 -53 -170 -3 -15 -23 -98 -31 -132 -10 -41 -28 -147 -39 -218
-19 -131 -25 -431 -13 -590 4 -41 7 -75 8 -75 1 0 3 -16 6 -35 6 -57 13 -103
19 -130 3 -14 8 -41 11 -60 13 -71 67 -271 85 -315 7 -16 13 -34 14 -40 0 -5
5 -19 9 -30 5 -11 22 -54 39 -95 32 -81 120 -263 155 -320 12 -19 25 -42 29
-50 3 -8 24 -41 45 -72 21 -31 38 -61 38 -67 0 -5 4 -11 8 -13 4 -1 29 -32 54
-68 26 -36 55 -74 65 -85 10 -11 36 -43 57 -70 52 -65 320 -329 387 -380 28
-22 57 -45 63 -51 19 -18 259 -180 311 -209 28 -15 74 -41 103 -56 29 -16 59
-32 65 -36 7 -4 14 -8 17 -8 3 -1 46 -20 95 -44 152 -71 431 -168 535 -186 25
-4 44 -14 51 -27 12 -23 6 -146 -10 -199 -23 -76 -126 -158 -223 -177 -45 -9
-232 -9 -288 1 -142 23 -230 51 -344 110 -107 55 -216 133 -376 267 -36 30
-73 61 -84 70 -10 8 -30 26 -45 40 -30 29 -146 129 -210 180 -24 19 -48 40
-55 45 -36 32 -223 165 -232 165 -3 0 -18 8 -32 19 -27 18 -152 85 -162 86 -3
1 -15 6 -28 13 -12 7 -22 10 -22 6 0 -3 -6 -1 -13 5 -13 10 -87 36 -180 62
-223 64 -450 25 -623 -107 -125 -95 -216 -242 -242 -389 -8 -50 -7 -157 3
-184 3 -7 21 19 41 59 25 49 61 97 109 146 39 41 75 74 78 74 3 0 29 13 57 30
27 16 50 27 50 24 0 -4 6 -2 13 4 41 34 282 51 392 29 67 -14 80 -17 131 -32
29 -8 73 -24 99 -35 25 -11 46 -19 48 -18 1 0 26 -14 55 -31 29 -17 57 -31 62
-31 6 0 10 -4 10 -10 0 -5 7 -10 15 -10 8 0 15 -3 15 -8 0 -4 15 -15 33 -25
17 -10 47 -31 66 -47 18 -17 36 -30 40 -30 3 0 28 -20 54 -45 27 -25 50 -45
52 -45 2 0 31 -26 64 -59 34 -32 61 -58 61 -57 0 1 49 -46 108 -104 251 -244
325 -308 472 -405 176 -115 430 -226 580 -251 14 -2 36 -7 50 -9 95 -19 161
-28 203 -27 26 0 36 -3 33 -11 -3 -7 -9 -20 -12 -30 -4 -9 -10 -17 -15 -17 -5
0 -17 -8 -27 -18 -28 -26 -63 -47 -73 -44 -5 1 -9 -2 -9 -7 0 -5 -17 -12 -37
-16 -21 -5 -45 -10 -53 -12 -28 -6 -144 -5 -190 1 -25 4 -97 21 -160 37 -125
32 -120 31 -200 54 -30 9 -64 18 -75 20 -11 3 -60 16 -110 31 -127 37 -295 74
-405 89 -64 9 -300 14 -315 6 -5 -3 -19 -7 -30 -8 -115 -15 -241 -80 -337
-173 -43 -41 -78 -80 -78 -87 0 -6 -6 -16 -13 -20 -6 -4 -18 -19 -25 -32 -15
-27 -15 -26 60 25 58 39 162 79 248 95 66 12 224 15 270 6 14 -3 48 -10 77
-16 95 -19 188 -53 323 -119 74 -36 137 -68 140 -72 8 -10 167 -83 303 -139
39 -16 199 -73 211 -75 6 -1 16 -4 21 -7 6 -4 24 -10 40 -14 17 -5 35 -10 40
-11 6 -2 17 -5 25 -6 8 -2 21 -7 28 -12 7 -4 16 -6 19 -3 3 3 17 1 32 -4 14
-6 67 -19 116 -30 50 -11 97 -21 105 -23 19 -4 106 -17 140 -21 14 -2 52 -6
85 -10 33 -4 74 -9 90 -11 48 -5 305 -4 360 2 28 3 64 7 80 8 17 2 44 6 60 10
17 3 40 9 53 11 12 3 32 7 44 10 114 25 317 115 388 173 80 65 169 163 215
237 27 44 50 81 51 83 1 2 28 -17 61 -42 110 -85 280 -159 418 -182 78 -13
109 -16 232 -18 115 -3 195 4 313 27 69 13 219 58 278 83 17 8 49 21 70 30 64
27 107 49 110 57 2 4 10 7 17 7 8 0 36 13 62 28 26 16 55 31 63 35 8 4 33 18
55 30 132 77 465 249 506 262 13 4 47 18 74 31 53 24 159 61 197 68 13 3 23 5
23 6 0 1 7 3 15 5 98 20 211 22 283 4 110 -27 245 -122 323 -227 56 -75 70
-92 78 -92 4 0 4 4 1 10 -3 5 -8 20 -10 32 -10 52 -28 116 -46 155 -10 24 -19
45 -19 49 0 3 -20 36 -44 72 -41 63 -87 116 -134 154 -25 20 -112 69 -112 63
0 -2 -17 3 -37 12 -53 22 -94 28 -203 28 -88 -1 -115 -3 -195 -20 -59 -12
-181 -58 -267 -100 -48 -24 -89 -41 -91 -39 -2 3 -10 -2 -17 -11 -7 -8 -17
-15 -22 -15 -6 0 -23 -9 -39 -21 -16 -11 -29 -17 -29 -13 0 4 -8 0 -17 -8 -18
-15 -268 -140 -278 -138 -3 0 -18 -6 -34 -15 -16 -8 -68 -26 -116 -40 -240
-69 -497 -47 -691 61 -50 28 -142 109 -134 118 3 2 32 -5 65 -16 48 -17 89
-22 211 -24 82 -1 170 2 195 7 24 6 55 12 69 14 121 19 327 129 444 238 25 24
56 52 68 63 22 19 175 183 216 232 148 172 389 417 422 427 11 3 20 10 20 15
0 5 9 12 20 15 11 3 26 12 33 18 19 18 76 45 137 65 116 37 250 7 360 -81 25
-20 46 -33 48 -28 5 16 -37 122 -68 171 -64 99 -178 177 -273 185 -23 2 -42 5
-42 6 0 1 -21 2 -47 3 -27 1 -48 -1 -48 -4 0 -3 -19 -5 -43 -6 -23 0 -53 -3
-67 -7 -86 -20 -260 -86 -260 -99 0 -4 -6 -8 -13 -8 -11 0 -106 -62 -148 -97
-48 -41 -153 -139 -281 -265 -147 -144 -236 -225 -267 -242 -9 -5 -18 -12 -21
-16 -7 -8 -138 -90 -145 -90 -3 0 -21 -7 -41 -15 -19 -8 -38 -15 -42 -16 -4
-1 -18 -6 -32 -11 -31 -12 -55 -17 -100 -23 -19 -2 -37 -5 -40 -5 -11 -4 -127
0 -165 6 -63 9 -171 41 -218 64 -46 23 -82 68 -97 121 -15 51 -12 115 5 129 8
7 15 10 15 7 0 -3 12 0 27 8 15 8 30 12 34 10 4 -3 12 2 19 10 7 8 19 15 28
15 21 0 302 138 397 196 77 46 265 172 275 183 3 4 37 31 75 62 124 99 277
245 351 336 18 21 43 50 57 65 14 15 38 45 54 65 15 21 32 42 36 48 45 56 207
306 207 320 0 2 14 28 31 57 17 29 32 58 34 63 3 18 40 90 48 96 5 3 8 8 6 10
-1 2 16 51 38 109 44 112 105 302 108 335 1 11 7 38 13 60 6 22 13 56 16 75 3
19 8 44 10 56 4 20 15 96 22 159 2 17 6 63 8 104 3 40 7 75 10 78 3 3 1 16 -4
29 -5 13 -6 25 -2 28 4 2 6 24 5 48 -5 136 -13 278 -18 313 -3 22 -8 54 -10
70 -2 17 -4 32 -5 35 -2 3 -2 9 -1 13 1 5 -3 25 -8 45 -5 20 -12 53 -15 72 -3
19 -10 50 -15 68 -5 18 -10 33 -10 35 1 5 -13 63 -18 77 -3 8 -8 23 -10 34 -6
31 -50 157 -88 251 -63 154 -204 424 -227 433 -4 2 -8 8 -8 13 0 13 -118 185
-155 225 -5 6 -21 26 -35 44 -61 82 -241 267 -339 350 -30 25 -59 50 -65 55
-36 34 -186 145 -194 145 -6 0 -12 3 -14 8 -3 8 -127 89 -208 136 -74 43 -348
175 -375 181 -5 1 -21 7 -35 13 -21 9 -51 21 -70 27 -3 1 -14 5 -25 9 -120 46
-340 103 -505 130 -19 3 -46 8 -59 11 -23 4 -50 8 -172 21 -62 7 -526 14 -532
8z"/>
<path d="M6969 1383 c-7 -151 -8 -149 68 -148 l58 0 1 83 1 82 -63 0 c-54 0
-64 -3 -65 -17z"/>
<path d="M1077 1374 c-1 -1 -22 -4 -47 -7 -95 -11 -182 -51 -253 -116 -61 -56
-128 -184 -139 -262 -2 -13 -6 -28 -9 -34 -6 -12 -4 -229 3 -265 11 -52 30
-115 40 -127 6 -7 7 -13 2 -13 -5 0 -4 -4 1 -8 6 -4 17 -20 25 -37 8 -16 41
-56 72 -88 57 -58 142 -106 218 -122 87 -19 250 -7 305 22 11 6 22 11 25 10
14 -2 100 62 137 101 44 47 106 162 119 222 32 143 19 331 -31 445 -75 170
-225 271 -417 279 -27 2 -49 2 -51 0z m164 -142 c81 -35 166 -145 184 -238 15
-81 18 -104 19 -164 1 -36 0 -69 -3 -74 -2 -5 -5 -23 -7 -40 -13 -121 -94
-245 -188 -286 -130 -58 -264 -34 -360 63 -83 85 -116 192 -111 356 4 111 7
126 37 205 24 60 92 142 138 166 81 43 209 48 291 12z"/>
<path d="M4066 1350 c-2 -5 0 -1016 3 -1035 1 -11 130 -15 132 -5 5 35 3 149
-3 163 -5 9 -5 17 -1 17 4 0 8 20 8 45 0 25 -4 45 -8 45 -5 0 -5 5 -1 12 10
16 11 238 1 238 -5 0 -5 6 -1 12 10 16 11 239 1 245 -4 2 -3 12 2 21 4 9 7 34
5 55 -5 53 9 39 35 -35 13 -35 28 -76 36 -93 7 -16 34 -88 60 -160 27 -71 56
-149 67 -172 10 -23 18 -45 18 -50 0 -4 12 -38 26 -75 19 -50 31 -68 45 -69
10 0 39 -1 64 -1 25 0 49 1 54 1 5 1 21 34 36 74 15 39 38 99 50 132 29 73
154 408 170 452 6 18 14 35 18 39 3 3 6 -194 6 -437 0 -244 0 -449 0 -455 1
-6 28 -10 69 -9 l67 1 1 525 1 525 -104 -1 c-113 0 -113 0 -133 -63 -5 -15
-23 -63 -40 -107 -17 -44 -33 -84 -34 -90 -2 -5 -8 -23 -15 -40 -25 -62 -65
-170 -67 -177 -1 -5 -3 -10 -4 -13 -1 -3 -3 -8 -5 -12 -1 -5 -7 -21 -13 -36
-7 -16 -12 -31 -12 -34 0 -3 -6 -19 -14 -36 -7 -18 -19 -47 -26 -66 l-13 -33
-15 27 c-8 16 -15 33 -16 39 -1 9 -28 80 -56 151 -4 11 -13 36 -20 55 -14 40
-23 64 -38 100 -5 14 -15 41 -22 60 -7 19 -18 49 -25 65 -7 17 -27 71 -44 120
l-32 90 -105 0 c-58 1 -107 -2 -108 -5z"/>
<path d="M2609 1311 c-1 -3 -2 -53 -3 -111 l-1 -105 -45 0 -45 -1 -3 -51 -3
-52 48 -3 47 -3 1 -261 2 -262 26 -55 c37 -75 84 -96 235 -101 60 -2 115 -1
122 4 11 7 15 36 11 90 -1 12 -17 15 -89 14 -112 -1 -147 10 -163 50 -9 21
-13 103 -14 278 l-1 247 135 3 135 3 -1 43 c0 24 -3 46 -7 49 -4 4 -64 7 -134
7 l-127 1 0 108 c0 59 -2 108 -5 108 -18 5 -120 4 -121 0z"/>
<path d="M2000 1088 c-58 -21 -109 -55 -148 -97 -33 -36 -82 -141 -86 -183 -2
-19 -5 -39 -7 -44 -6 -13 -3 -123 5 -164 28 -147 107 -245 236 -293 86 -32
258 -25 351 13 24 10 26 17 28 71 2 57 -4 69 -24 50 -35 -32 -206 -56 -273
-38 -82 21 -151 89 -173 170 -36 129 -9 283 64 356 40 41 134 80 157 66 5 -3
10 -2 10 3 0 5 24 5 58 0 81 -12 106 -18 144 -39 10 -5 22 -9 27 -9 13 0 20
47 9 58 -6 6 -6 12 1 16 17 11 -4 41 -36 54 -49 20 -86 25 -188 27 -79 2 -112
-2 -155 -17z"/>
<path d="M3380 1103 c-8 -3 -29 -11 -47 -19 -17 -8 -35 -14 -40 -14 -4 0 -30
-21 -57 -47 -45 -43 -91 -122 -102 -175 -2 -13 -7 -36 -10 -53 -11 -54 -6
-169 10 -251 9 -44 66 -142 101 -172 151 -133 413 -112 524 43 53 74 67 114
77 225 3 35 8 68 10 72 3 5 2 8 -3 8 -4 0 -9 25 -10 55 -4 125 -90 259 -195
305 -41 18 -74 24 -148 26 -52 1 -102 0 -110 -3z m135 -107 c48 -7 78 -22 106
-52 31 -35 62 -84 53 -84 -4 0 -2 -6 4 -13 13 -16 25 -95 25 -162 -2 -147 -60
-249 -161 -278 -172 -52 -296 83 -286 310 6 137 53 227 140 268 19 9 42 14 50
11 8 -3 14 -1 14 4 0 5 6 7 13 5 6 -2 26 -6 42 -9z"/>
<path d="M5475 1104 c-36 -9 -96 -34 -111 -47 -80 -66 -109 -105 -133 -179
-36 -111 -33 -284 7 -376 8 -20 15 -40 14 -45 -1 -4 2 -7 8 -7 6 0 10 -6 10
-13 0 -13 106 -118 118 -115 4 0 24 -6 44 -16 21 -9 70 -18 110 -19 175 -8
296 67 354 218 10 28 19 52 19 55 0 3 3 10 6 15 10 17 2 228 -10 273 -15 58
-44 114 -81 156 -32 36 -104 83 -143 93 -30 8 -187 13 -212 7z m145 -108 c0 7
59 -25 81 -44 26 -22 65 -88 76 -127 14 -53 7 -236 -10 -282 -75 -198 -325
-196 -402 2 -20 50 -27 206 -13 265 24 100 88 170 167 185 13 2 26 6 28 9 2 2
20 0 39 -4 18 -4 34 -6 34 -4z"/>
<path d="M7585 1097 c-8 -4 -15 -6 -15 -3 0 15 -120 -61 -153 -97 -39 -43 -86
-130 -94 -176 -11 -64 -10 -206 2 -252 36 -136 131 -233 265 -269 75 -20 209
-18 295 4 11 3 40 11 65 17 25 6 49 15 53 19 7 6 11 55 8 107 l-1 22 -35 -20
c-19 -12 -35 -18 -35 -14 0 4 -6 3 -12 -3 -10 -8 -63 -22 -98 -27 -3 0 -9 -3
-15 -7 -22 -13 -174 1 -217 20 -79 36 -133 113 -145 208 l-5 43 292 -1 c160 0
294 3 297 6 4 4 6 29 6 56 -3 96 -22 175 -54 222 -11 14 -19 29 -19 33 0 9
-51 55 -90 80 -19 12 -58 27 -86 34 -54 13 -185 12 -209 -2z m150 -100 c25 9
105 -37 130 -76 29 -44 55 -124 45 -141 -5 -8 -72 -11 -231 -11 -255 -1 -241
-7 -208 85 25 69 84 122 152 135 78 16 92 17 95 9 2 -4 10 -4 17 -1z"/>
<path d="M8386 1099 c-105 -25 -173 -99 -180 -197 -7 -107 40 -182 137 -217
28 -11 54 -20 57 -20 3 -1 32 -7 65 -15 33 -8 62 -14 65 -15 34 -7 88 -32 106
-49 62 -60 23 -163 -71 -185 -28 -6 -165 -5 -195 2 -35 8 -89 26 -128 44 -19
8 -36 12 -40 9 -3 -4 -6 -32 -6 -62 -1 -65 -2 -64 109 -89 173 -38 341 -17
420 52 52 46 65 77 65 163 0 45 -5 91 -11 103 -23 46 -98 99 -158 112 -48 11
-148 37 -161 42 -8 3 -24 8 -34 10 -29 5 -83 41 -90 59 -15 40 -6 82 26 113
17 17 39 31 47 32 9 0 25 3 36 5 70 16 257 -8 290 -37 20 -19 26 -7 24 50 -2
54 -4 61 -28 70 -74 29 -260 40 -345 20z"/>
<path d="M6043 1092 c-22 -3 -22 -4 -7 -45 9 -23 20 -51 24 -62 7 -18 37 -98
56 -150 4 -11 50 -135 103 -274 l96 -255 89 -1 c86 -1 88 -1 97 24 5 14 12 33
16 41 3 8 7 20 9 25 1 6 8 24 15 40 6 17 13 35 15 40 1 6 8 24 15 40 6 17 13
35 15 40 1 6 47 128 102 273 79 209 96 262 83 263 -22 1 -94 1 -107 0 -9 -1
-35 -48 -40 -71 0 -3 -5 -16 -11 -30 -6 -14 -18 -47 -27 -74 -9 -27 -25 -70
-35 -95 -11 -25 -28 -71 -39 -101 -96 -261 -105 -281 -116 -263 -6 10 -11 23
-12 28 -3 11 -86 235 -102 275 -6 14 -24 61 -40 105 -39 106 -43 120 -43 122
0 2 -10 26 -22 55 -23 51 -23 52 -67 52 -25 1 -55 0 -67 -2z"/>
<path d="M6972 1086 c-4 -7 -7 -744 -3 -777 1 -3 29 -5 64 -4 l62 0 1 393 c1
215 -3 393 -7 393 -41 5 -112 2 -117 -5z"/>
</g>
</svg>
